<svg width="34" height="34" viewBox="0 0 34 34" fill="none" xmlns="http://www.w3.org/2000/svg">
<path d="M27.6663 24.0592L26.3079 23.2454C25.8939 22.9978 25.4202 22.867 24.9376 22.8668H22.8934C22.4749 22.866 22.0582 22.9199 21.6536 23.0267L15.4943 24.68C14.8208 24.866 14.2799 25.3675 14.044 26.0251L8.62637 23.0941C8.18705 22.8441 7.67273 22.7592 7.17638 22.8545C6.98915 22.8876 6.80764 22.9472 6.63707 23.0316C6.25191 23.216 5.93239 23.5139 5.72093 23.885C5.53604 24.2082 5.4389 24.574 5.4389 24.9462C5.43317 25.7061 5.83577 26.4102 6.49306 26.7909L16.2028 32.6005C16.6247 32.8617 17.1106 33 17.6067 33H25.1212C25.4569 33.0003 25.7895 32.9367 26.1014 32.8133L27.6663 32.1953V33H32.9995V22.3334H27.6663V24.0592ZM25.7095 31.8214C25.5228 31.8951 25.3236 31.9331 25.1228 31.9333H17.6067C17.3062 31.9331 17.0117 31.8484 16.757 31.6891L7.03394 25.8727C6.70347 25.6818 6.50113 25.3282 6.50373 24.9467C6.50452 24.7597 6.55373 24.5759 6.6467 24.4134C6.75295 24.2292 6.91284 24.0816 7.10477 23.9904C7.1894 23.9493 7.27899 23.9201 7.37143 23.904C7.43888 23.8915 7.50737 23.885 7.57586 23.885C7.75919 23.8845 7.9394 23.9324 8.09851 24.0235L13.9732 27.198C13.98 27.2305 13.98 27.2626 13.9885 27.2951C14.2411 28.2261 15.0857 28.8727 16.0505 28.8737C16.3474 28.8467 16.6414 28.794 16.9294 28.717L22.4705 27.2342L22.1955 26.2037L16.6724 27.68C16.4291 27.736 16.1153 27.8 16.0505 27.8055C15.5687 27.8063 15.1463 27.4844 15.0195 27.0198C15.0023 26.9553 14.9922 26.8891 14.9885 26.8225C14.9885 26.8225 14.9844 26.6933 14.9885 26.648C15.0292 26.2019 15.3417 25.8274 15.7732 25.7074L21.9299 24.0602C22.2442 23.9761 22.5681 23.9334 22.8934 23.9334H24.9376C25.2272 23.9334 25.5113 24.0121 25.7595 24.1608L27.6663 25.3024V31.0479L25.7095 31.8214ZM28.7329 23.4001H31.9329V31.9333H28.7329V23.4001Z" fill="#DD2B1C" stroke="#DD2B1C"/>
<path d="M22.9966 5.26664L20.1357 2.40599C19.2376 1.50262 18.0154 0.996374 16.7417 1.00002H10.0366C9.62282 1.00054 9.21475 1.09715 8.84418 1.28153L7.64888 1.87944C7.4093 2.00001 7.14316 2.05756 6.87519 2.04688L6.33327 2.02787V1.00002H1V12.7332H6.33327V11.1332H7.24003L7.56269 11.3465C8.46554 11.946 9.51683 12.2845 10.5999 12.3241V19.1331H32.9996V5.26664H22.9966ZM5.26662 11.6666H2.06665V2.06667H5.26662V11.6666ZM8.15304 10.459L7.55982 10.0666H6.33327V3.09505L6.83613 3.11302C7.28274 3.1289 7.72596 3.03281 8.1257 2.83359L9.31996 2.23568C9.54235 2.12449 9.78792 2.06667 10.0366 2.06667H16.7417C17.7324 2.06381 18.6831 2.45755 19.3816 3.15989L21.4883 5.26664H17.0873L15.7928 3.97238L15.0389 4.72628L18.8063 8.49394C19.2248 8.9106 19.2261 9.58768 18.8094 10.0064C18.3925 10.4249 17.7154 10.4262 17.2969 10.0096L14.1504 6.86297L13.7769 7.18302C12.746 8.05853 11.2389 8.08093 10.1822 7.23615L9.87308 6.98563L9.20095 7.81426L9.51344 8.06765C9.84026 8.32884 10.2072 8.53561 10.5999 8.67988V11.2569C9.72698 11.2181 8.8809 10.9424 8.15304 10.459ZM15.7397 9.95981L16.5444 10.7648C17.3798 11.5877 18.7209 11.589 19.5576 10.7674C18.7748 11.9796 19.0836 13.5928 20.2589 14.4301C21.4341 15.2673 23.0599 15.0321 23.9497 13.8965C24.8396 12.7606 24.6789 11.1257 23.5846 10.1851C22.4906 9.24446 20.85 9.33065 19.8607 10.3806C20.225 9.80851 20.2901 9.0955 20.0355 8.4666H27.1773C27.4067 9.80851 28.4578 10.8595 29.7997 11.089V13.3108C28.4578 13.5402 27.4067 14.5913 27.1773 15.9332H16.4222C16.1928 14.5913 15.1418 13.5402 13.7999 13.3108V11.089C14.5621 10.9606 15.2514 10.5593 15.7397 9.95981ZM20.1998 12.1999C20.1998 11.3163 20.9162 10.5999 21.7998 10.5999C22.6833 10.5999 23.3997 11.3163 23.3997 12.1999C23.3997 13.0835 22.6833 13.7999 21.7998 13.7999C20.9162 13.7999 20.1998 13.0835 20.1998 12.1999ZM31.933 18.0665H11.6665V8.90331C12.5121 8.96685 13.3551 8.75123 14.0665 8.29004L14.9764 9.19992C14.5761 9.74367 13.9418 10.0653 13.2665 10.0666H12.7332V14.3332H13.2665C14.4446 14.3332 15.3998 15.2884 15.3998 16.4665V16.9998H28.1997V16.4665C28.1997 15.2884 29.1549 14.3332 30.333 14.3332H30.8663V10.0666H30.333C29.1549 10.0666 28.1997 9.11138 28.1997 7.93327V7.39995H19.2206L18.154 6.33329H31.933V18.0665Z" fill="#DD2B1C" stroke="#DD2B1C"/>
</svg>
