<svg width="31" height="22" viewBox="0 0 31 22" fill="none" xmlns="http://www.w3.org/2000/svg">
<path d="M11.2234 17.868C11.0559 19.0147 10.4698 20.064 9.57291 20.823C8.67597 21.5821 7.52838 22 6.34091 22C5.15344 22 4.00584 21.5821 3.10891 20.823C2.21197 20.064 1.62592 19.0147 1.45841 17.868H0V1.37446C0 1.00993 0.148457 0.660332 0.412713 0.402571C0.676969 0.144809 1.03538 0 1.40909 0H21.1364C21.5101 0 21.8685 0.144809 22.1327 0.402571C22.397 0.660332 22.5455 1.00993 22.5455 1.37446V4.12339H26.7727L31 9.6982V17.868H28.1325C27.965 19.0147 27.3789 20.064 26.482 20.823C25.5851 21.5821 24.4375 22 23.25 22C22.0625 22 20.9149 21.5821 20.018 20.823C19.1211 20.064 18.535 19.0147 18.3675 17.868H11.2234ZM19.7273 2.74892H2.81818V13.8133C3.37416 13.2597 4.05903 12.8453 4.81452 12.6053C5.57 12.3654 6.37373 12.3071 7.1573 12.4353C7.94088 12.5635 8.68109 12.8745 9.31495 13.3418C9.94881 13.809 10.4575 14.4188 10.7979 15.1191H18.793C19.0298 14.6339 19.3468 14.1927 19.7273 13.8133V2.74892ZM22.5455 10.9957H28.1818V10.604L25.3524 6.87231H22.5455V10.9957ZM23.25 19.2425C23.8108 19.2425 24.3485 19.0252 24.7451 18.6384C25.1416 18.2516 25.3643 17.7271 25.3643 17.1801C25.3643 16.6331 25.1416 16.1085 24.7451 15.7218C24.3485 15.335 23.8108 15.1177 23.25 15.1177C22.6892 15.1177 22.1514 15.335 21.7549 15.7218C21.3584 16.1085 21.1357 16.6331 21.1357 17.1801C21.1357 17.7271 21.3584 18.2516 21.7549 18.6384C22.1514 19.0252 22.6892 19.2425 23.25 19.2425ZM8.45455 17.1808C8.45455 16.91 8.39987 16.6419 8.29365 16.3918C8.18743 16.1417 8.03174 15.9144 7.83548 15.7229C7.63921 15.5315 7.4062 15.3796 7.14976 15.276C6.89332 15.1724 6.61848 15.1191 6.34091 15.1191C6.06334 15.1191 5.78849 15.1724 5.53206 15.276C5.27562 15.3796 5.04261 15.5315 4.84634 15.7229C4.65007 15.9144 4.49438 16.1417 4.38816 16.3918C4.28194 16.6419 4.22727 16.91 4.22727 17.1808C4.22727 17.7276 4.44996 18.252 4.84634 18.6386C5.24273 19.0253 5.78034 19.2425 6.34091 19.2425C6.90148 19.2425 7.43909 19.0253 7.83548 18.6386C8.23186 18.252 8.45455 17.7276 8.45455 17.1808Z" fill="#DD2B1C"/>
</svg>
